# xmcd
# Track frame offsets:
# 150
# 13061
# 24099
# 42305
# 57982
# 77883
# 89742
# 102863
# 114970
# 126223
# 139030
# 150662
# 162139
# 189785
# 201611
# 222411
# 248478
#
# Disc length: 3538 seconds
# Revision: 0
# Processed by: cddbd v1.5PL3 Copyright (c) Steve Scherf et al.
# Submitted via: VisiTrax 2.9.9.202 - For more info visit www.synapsa.com
#
DISCID=e00dd011
DTITLE=Boogie Kings - The Boogie Kings Greatest Hits
DYEAR=1900
DGENRE=
TTITLE0=Fever
TTITLE1=Crying Man
TTITLE2=Harlem Shuffle
TTITLE3=Funny
TTITLE4=Lovin Feeling
TTITLE5=Land of 1000 Dances
TTITLE6=Can't stop Loving You
TTITLE7=A Change Is Going to Come
TTITLE8=Philly Walk
TTITLE9=Tell it like it Is
TTITLE10=When She Touches Me
TTITLE11=Hold on I'm Comin
TTITLE12=Out in Left Feild
TTITLE13=Shake A Tail Feadther
TTITLE14=Try a Little Tenderness
TTITLE15=Rainbow 65
TTITLE16=Swamp Pop Music
EXTD=
EXTT0=
EXTT1=
EXTT2=
EXTT3=
EXTT4=
EXTT5=
EXTT6=
EXTT7=
EXTT8=
EXTT9=
EXTT10=
EXTT11=
EXTT12=
EXTT13=
EXTT14=
EXTT15=
EXTT16=
PLAYORDER=
